<?xml version="1.0" encoding="UTF-8"?>
<svg version="1.1" xmlns="http://www.w3.org/2000/svg" width="600" height="600">
<path d="M0 0 C198 0 396 0 600 0 C600 198 600 396 600 600 C402 600 204 600 0 600 C0 402 0 204 0 0 Z " fill="#131414" transform="translate(0,0)"/>
<path d="M0 0 C4.54071365 1.46583335 7.76266969 4.04531733 11.3125 7.125 C11.86228516 7.59292969 12.41207031 8.06085938 12.97851562 8.54296875 C14.32396409 9.68952483 15.662679 10.84397451 17 12 C15.72515583 14.72746137 14.34470496 16.98315488 12.41796875 19.29296875 C11.90443848 19.91486084 11.3909082 20.53675293 10.86181641 21.17749023 C10.03302979 22.17244507 10.03302979 22.17244507 9.1875 23.1875 C2.72729549 31.03436916 -3.46042544 39.06594796 -9.60205078 47.16308594 C-12.3697657 50.79988074 -15.18146519 54.40252466 -18 58 C-14.20410876 66.32829869 -7.03370511 73.18350911 -1.13452148 80.11547852 C1.74489908 83.5019544 4.57733331 86.92026664 7.375 90.375 C10.99725403 94.82816535 14.72872178 99.17345154 18.5 103.5 C31.40382542 118.30640862 31.40382542 118.30640862 35.6171875 124.30078125 C36.07351563 124.86152344 36.52984375 125.42226563 37 126 C39.09562976 126.23178557 39.09562976 126.23178557 40.4453125 124.6015625 C41.27675781 123.62316406 41.27675781 123.62316406 42.125 122.625 C42.74890625 121.8928125 43.3728125 121.160625 44.015625 120.40625 C45.99866546 118.00161826 47.9411855 115.56934152 49.875 113.125 C52.62128684 109.65906959 55.45907867 106.33099366 58.4375 103.0625 C62.32217453 98.79931872 65.98864275 94.39991688 69.6171875 89.91796875 C72.66597555 86.1844529 75.7862902 82.51476693 78.90917969 78.84326172 C81.85912409 75.36794233 84.75646093 71.85569547 87.625 68.3125 C91.20105301 63.9156092 94.94364349 59.70983803 98.7578125 55.51953125 C101.82828393 52.06926284 104.72475092 48.48962387 107.6328125 44.90234375 C110.14200172 41.82589558 112.68599305 38.78073347 115.25 35.75 C115.92772461 34.94864624 115.92772461 34.94864624 116.61914062 34.13110352 C119.19506043 31.09615766 121.7940796 28.08293874 124.4140625 25.0859375 C124.98995117 24.42625977 125.56583984 23.76658203 126.15917969 23.08691406 C127.26887203 21.81806266 128.38132204 20.55161544 129.49707031 19.28808594 C132.93879215 15.35438129 136.02201845 11.29664497 139 7 C144.52820971 8.19620186 147.10621086 9.51520029 150.875 13.9375 C152.16083984 15.42830078 152.16083984 15.42830078 153.47265625 16.94921875 C156.50212222 20.60611662 159.52118768 24.26967547 162.50390625 27.96484375 C166.0530775 32.28050269 169.72189628 36.48864996 173.39575195 40.69824219 C174.93435701 42.46218775 176.46768557 44.23058962 178 46 C178.49564453 46.56509277 178.99128906 47.13018555 179.50195312 47.71240234 C183 51.77254747 183 51.77254747 183 54 C183.66 54 184.32 54 185 54 C186.5234375 55.6953125 186.5234375 55.6953125 188.375 58.125 C191.7508029 62.45310897 195.22780096 66.65821546 198.8125 70.8125 C199.31604004 71.39821777 199.81958008 71.98393555 200.33837891 72.58740234 C202.42636731 75.01555748 204.51662356 77.44169509 206.61279297 79.86279297 C208.1629112 81.65480713 209.70689578 83.45194592 211.25 85.25 C211.72800049 85.79889893 212.20600098 86.34779785 212.69848633 86.91333008 C216 90.77294949 216 90.77294949 216 93 C216.66 93 217.32 93 218 93 C219.35382149 94.48738235 220.63139886 96.04430551 221.875 97.625 C225.46556162 102.11320202 229.12122373 106.52248792 232.875 110.875 C233.89076576 112.05586852 234.90638983 113.23685893 235.921875 114.41796875 C236.42783203 115.00626465 236.93378906 115.59456055 237.45507812 116.20068359 C240.02065331 119.18871916 242.57550262 122.185741 245.125 125.1875 C245.58632324 125.72810059 246.04764648 126.26870117 246.52294922 126.82568359 C248.49863747 129.15531524 250.30266381 131.45399571 252 134 C251.625 137.1875 251.625 137.1875 251 140 C250.34 140 249.68 140 249 140 C248.78730469 140.52207031 248.57460938 141.04414063 248.35546875 141.58203125 C246.437748 145.00297979 243.89875937 147.7542505 241.3125 150.6875 C237.92615324 154.57886784 234.56566156 158.45774166 231.4375 162.5625 C228.59515004 166.29221775 225.60331971 169.86981068 222.5625 173.4375 C217.93098313 178.8736781 213.42798266 184.39612153 209 190 C204.65485953 195.4990367 200.23858222 200.91991809 195.6875 206.25 C191.86463826 210.7287384 188.17145056 215.28489576 184.5625 219.9375 C180.83416753 224.74163324 176.98641602 229.40789 173 234 C168.51372708 239.16879373 164.22498356 244.45416745 160.02807617 249.85986328 C155.49144186 255.69161347 150.7663161 261.35486206 146 267 C141.45928635 265.53416665 138.23733031 262.95468267 134.6875 259.875 C134.13771484 259.40707031 133.58792969 258.93914062 133.02148438 258.45703125 C131.67603591 257.31047517 130.337321 256.15602549 129 255 C135.89212132 245.56725356 143.41932086 236.66172665 150.9831543 227.7668457 C154.37068687 223.77255551 157.65091277 219.70367279 160.90234375 215.59765625 C163.4043799 212.49923159 165.97900542 209.46802034 168.5625 206.4375 C172.24557058 202.11367775 175.81520677 197.73373526 179.2734375 193.2265625 C184.01100036 187.11703573 188.97624297 181.18901681 193.99291992 175.30786133 C198.733228 169.75028763 203.31386852 164.10201108 207.78222656 158.32348633 C211.73133824 153.25262877 215.90849554 148.39711646 220.20483398 143.61743164 C222.67298766 140.81562091 224.49229581 138.74011862 225 135 C223.58135733 132.59012961 223.58135733 132.59012961 221.375 130.1875 C220.54484375 129.21941406 219.7146875 128.25132812 218.859375 127.25390625 C217.90649626 126.16905448 216.95335888 125.08442985 216 124 C214.96242203 122.80174984 213.92600112 121.60249698 212.890625 120.40234375 C210.68776561 117.851962 208.47871121 115.30713577 206.265625 112.765625 C201.90680168 107.75118549 197.6234358 102.67391028 193.34277344 97.59277344 C191.06578561 94.89185188 188.78254206 92.19622756 186.5 89.5 C185.58330416 88.41669135 184.66663747 87.33335804 183.75 86.25 C183.29625 85.71375 182.8425 85.1775 182.375 84.625 C178.25 79.75 178.25 79.75 176.87524414 78.12524414 C175.95782203 77.04104762 175.04034148 75.95690055 174.12280273 74.87280273 C171.84221456 72.17807689 169.56262185 69.48252188 167.28515625 66.78515625 C161.90572149 60.41667743 156.50268173 54.06968957 151.05883789 47.75610352 C148.30499867 44.55465376 145.61673204 41.31576447 143 38 C139.29983605 39.23338798 138.45296966 40.63820444 136.0625 43.6875 C132.44133969 48.22869452 128.73662146 52.66935371 124.9375 57.0625 C123.42859318 58.82257144 121.92188775 60.58449977 120.41601562 62.34716797 C119.09065936 63.89417864 117.75657845 65.43370273 116.421875 66.97265625 C115.68453125 67.84792969 114.9471875 68.72320312 114.1875 69.625 C113.21876953 70.75808594 113.21876953 70.75808594 112.23046875 71.9140625 C110.8124643 73.88684339 110.8124643 73.88684339 111.08203125 76.01953125 C112.2209777 78.47674763 113.64147189 80.08965766 115.5 82.0625 C118.60226469 85.43572899 121.56148136 88.8690129 124.4375 92.4375 C128.07093805 96.91853252 131.86491872 101.20595249 135.75 105.46875 C138.86932876 108.97799486 141.79749133 112.63162123 144.75 116.28125 C146.93501569 118.92147729 149.19171391 121.4672972 151.5 124 C156.2080942 129.1690265 160.60349062 134.56601645 165 140 C166.65879108 142.00678921 168.32790465 144.00427329 170 146 C165.2347969 150.9240432 160.11342667 155.44259642 155 160 C147.50676856 152.7484857 140.80185381 144.81756929 134.25 136.71875 C132.06498431 134.07852271 129.80828609 131.5327028 127.5 129 C123.58231158 124.70142521 119.91032858 120.24390195 116.25390625 115.72265625 C114.04853296 113.05862647 111.7682369 110.49211558 109.4375 107.9375 C105.05956074 103.13564057 100.99810004 98.12018261 97 93 C93.63019123 94.43570219 91.69535364 96.17498834 89.3125 98.9375 C88.61640625 99.741875 87.9203125 100.54625 87.203125 101.375 C84.18948051 104.96572534 81.23755813 108.60496691 78.28515625 112.24609375 C76.08636063 114.89592437 73.81898905 117.45516159 71.5 120 C67.65563519 124.2228256 64.03474466 128.58644573 60.44140625 133.0234375 C57.71469716 136.34784123 54.9292704 139.61604359 52.125 142.875 C46.84004339 149.01704453 41.59467273 155.19092278 36.36767578 161.38232422 C34.97540583 163.02908979 33.57994527 164.67310067 32.18359375 166.31640625 C27.86501199 171.40228673 23.57524599 176.50282136 19.375 181.6875 C15.65121914 186.271649 11.75202027 190.66143634 7.75 195.00390625 C5.95218021 196.88450675 5.95218021 196.88450675 5 199 C0.65962225 198.50485982 -2.08612375 195.68886128 -5.25 192.9375 C-5.80429688 192.46505859 -6.35859375 191.99261719 -6.9296875 191.50585938 C-8.291749 190.34341033 -9.64659956 189.17252145 -11 188 C-10.40791545 184.16470602 -8.66121701 182.05780323 -6.1875 179.125 C-5.3728125 178.15433594 -4.558125 177.18367187 -3.71875 176.18359375 C-2.8133512 175.1216695 -1.90707332 174.06049426 -1 173 C-0.5359375 172.4548877 -0.071875 171.90977539 0.40625 171.34814453 C1.87280294 169.62604075 3.34218202 167.90639001 4.8125 166.1875 C5.30878906 165.60645508 5.80507812 165.02541016 6.31640625 164.42675781 C8.99863577 161.29691838 11.71038848 158.19976506 14.46875 155.13671875 C15.02844482 154.50677002 15.58813965 153.87682129 16.16479492 153.2277832 C17.2431505 152.01521238 18.33154687 150.81147906 19.4309082 149.61791992 C21.08187598 147.80739281 21.08187598 147.80739281 23 145 C22.50548197 140.47845497 19.41319881 137.69494158 16.5 134.4375 C15.39612865 133.17796497 14.29327259 131.91753943 13.19140625 130.65625 C12.64629395 130.03492188 12.10118164 129.41359375 11.53955078 128.7734375 C9.45305677 126.36996581 7.44115422 123.91024932 5.4375 121.4375 C0.38123581 115.21510641 -4.80780978 109.10888035 -10 103 C-11.87613641 100.79262847 -13.75118389 98.58434158 -15.625 96.375 C-16.07794434 95.84173096 -16.53088867 95.30846191 -16.99755859 94.7590332 C-20.7870503 90.28420789 -24.47162497 85.73139732 -28.125 81.14453125 C-30.00050438 78.81095965 -30.00050438 78.81095965 -33 77 C-38.38217312 83.46430317 -43.60454274 90.03435697 -48.75 96.6875 C-53.92554387 103.37897011 -59.18556708 109.99054749 -64.56152344 116.5222168 C-67.1853945 119.720113 -69.77650503 122.94282494 -72.3125 126.2109375 C-72.80363281 126.8404834 -73.29476562 127.4700293 -73.80078125 128.11865234 C-75.0821632 130.12889854 -75.70775203 131.6355863 -76 134 C-74.43858649 136.32230492 -74.43858649 136.32230492 -72.125 138.5625 C-68.76096738 142.10879445 -65.56057561 145.68779893 -62.5 149.5 C-59.5918662 153.0947765 -56.61458668 156.58260628 -53.5 160 C-49.6329601 164.24839159 -45.98425393 168.63577327 -42.3671875 173.09765625 C-35.86147786 181.07412863 -29.13207481 188.86148961 -22.375 196.625 C-17.92007473 201.74423916 -13.57072822 206.93099949 -9.296875 212.203125 C-6.63582376 215.4434527 -3.91959877 218.63205682 -1.1875 221.8125 C-0.68734375 222.39515625 -0.1871875 222.9778125 0.328125 223.578125 C2.98562254 226.66949968 5.65274255 229.75221746 8.328125 232.828125 C8.86977295 233.45356201 9.4114209 234.07899902 9.96948242 234.72338867 C11.00289336 235.91644378 12.03933991 237.1068788 13.0793457 238.29418945 C15.74226714 241.37332072 18.02871578 244.43575884 20 248 C19.24074219 248.61488281 18.48148437 249.22976563 17.69921875 249.86328125 C16.70535156 250.67152344 15.71148437 251.47976563 14.6875 252.3125 C13.20830078 253.51326172 13.20830078 253.51326172 11.69921875 254.73828125 C9.08692936 256.8324058 9.08692936 256.8324058 7.33203125 258.79296875 C6 260 6 260 3 260 C1.0546875 257.9453125 1.0546875 257.9453125 -1.125 255.125 C-4.14615851 251.3021101 -7.20786911 247.59246564 -10.5 244 C-14.34191939 239.77986056 -17.96115221 235.41972816 -21.55078125 230.984375 C-24.31810365 227.61239044 -27.15135579 224.30324371 -30 221 C-33.62438043 216.79722458 -37.19567812 212.56450243 -40.6875 208.25 C-43.53458501 204.7411601 -46.45812552 201.34133363 -49.5 198 C-62.39712697 183.80861909 -62.39712697 183.80861909 -64 179 C-64.66 179 -65.32 179 -66 179 C-67.74064913 176.9299572 -69.37842807 174.84801759 -71 172.6875 C-75.29049607 167.08975447 -79.79306005 161.8252391 -84.59375 156.65234375 C-87.81550458 153.10109154 -90.8107481 149.3866463 -93.81640625 145.65234375 C-96.61657942 142.25106005 -99.57068598 139.00664845 -102.56640625 135.77734375 C-104 134 -104 134 -104 132 C-103.34 132 -102.68 132 -102 132 C-101.72091797 131.41154297 -101.44183594 130.82308594 -101.15429688 130.21679688 C-100.07914993 128.15200537 -98.92306377 126.39188526 -97.53125 124.53125 C-97.04793213 123.88422119 -96.56461426 123.23719238 -96.06665039 122.57055664 C-95.54965576 121.88727295 -95.03266113 121.20398926 -94.5 120.5 C-93.96173584 119.78513428 -93.42347168 119.07026855 -92.86889648 118.33374023 C-88.93329487 113.14339331 -84.82729804 108.14586382 -80.6171875 103.17578125 C-76.93200802 98.7640464 -73.50602878 94.15122165 -70.03637695 89.56982422 C-66.20350413 84.52713243 -62.26678114 79.58466346 -58.25 74.6875 C-53.80943711 69.27316967 -49.54688137 63.76819935 -45.3828125 58.13671875 C-41.95613185 53.62585881 -38.37382224 49.24680616 -34.77929688 44.86914062 C-30.76698018 39.97741205 -26.87173939 35.00345385 -23 30 C-21.85746392 28.53461559 -20.7142397 27.06976745 -19.5703125 25.60546875 C-12.96045406 17.13298658 -6.39883262 8.6333456 0 0 Z " fill="#56BFFA" transform="translate(225,166)"/>
<path d="M0 0 C4.49108752 1.42860919 7.46169316 3.93077292 10.8125 7.125 C11.56563477 7.82689453 11.56563477 7.82689453 12.33398438 8.54296875 C13.56189455 9.68901825 14.78178215 10.84365311 16 12 C14.71119914 15.69969203 13.25659021 18.10898533 10.5625 20.9375 C7.08691614 24.71993721 3.88727287 28.62687323 0.75 32.6875 C-3.58276972 38.27653004 -8.09293721 43.67499156 -12.72070312 49.02124023 C-16.94729054 53.91151237 -21.00245359 58.92066514 -25 64 C-29.34395963 69.49994056 -33.76145325 74.91995963 -38.3125 80.25 C-42.13536174 84.7287384 -45.82854944 89.28489576 -49.4375 93.9375 C-53.16583247 98.74163324 -57.01358398 103.40789 -61 108 C-65.48627292 113.16879373 -69.77501644 118.45416745 -73.97192383 123.85986328 C-78.50855814 129.69161347 -83.2336839 135.35486206 -88 141 C-92.54071365 139.53416665 -95.76266969 136.95468267 -99.3125 133.875 C-99.86228516 133.40707031 -100.41207031 132.93914062 -100.97851562 132.45703125 C-102.32396409 131.31047517 -103.662679 130.15602549 -105 129 C-98.10787868 119.56725356 -90.58067914 110.66172665 -83.0168457 101.7668457 C-79.62931313 97.77255551 -76.34908723 93.70367279 -73.09765625 89.59765625 C-70.5956201 86.49923159 -68.02099458 83.46802034 -65.4375 80.4375 C-61.75442942 76.11367775 -58.18479323 71.73373526 -54.7265625 67.2265625 C-49.98899964 61.11703573 -45.02375703 55.18901681 -40.00708008 49.30786133 C-35.26742753 43.75105618 -30.69247359 38.09998409 -26.21777344 32.32788086 C-22.23664294 27.22589802 -18.05238545 22.31465678 -13.79516602 17.44165039 C-11.11193225 14.42061226 -11.11193225 14.42061226 -9 11 C-8.34 11 -7.68 11 -7 11 C-6.773125 10.484375 -6.54625 9.96875 -6.3125 9.4375 C-4.5024447 6.07596873 -2.26003596 3.07088856 0 0 Z " fill="#8DFAC9" transform="translate(459,292)"/>
<path d="M0 0 C4.94909419 3.68009568 8.54402671 7.97627037 12.38671875 12.78125 C15.29045423 16.39318619 18.32884575 19.88307798 21.375 23.375 C28.91959882 32.04101902 36.38874678 40.76111843 43.625 49.6875 C46.49426557 53.21536923 49.43905693 56.63719922 52.5 60 C56.36581646 64.2470475 60.01369253 68.63268905 63.62890625 73.09375 C69.49192646 80.28005484 75.54381763 87.31110575 81.59155273 94.34204102 C87.16053853 100.81717289 92.63127313 107.35687836 98 114 C94.85269458 117.17510847 91.6778272 120.2990958 88.375 123.3125 C87.61960937 124.00988281 86.86421875 124.70726562 86.0859375 125.42578125 C84 127 84 127 81 127 C79.0546875 124.9453125 79.0546875 124.9453125 76.875 122.125 C73.85384149 118.3021101 70.79213089 114.59246564 67.5 111 C63.65808061 106.77986056 60.03884779 102.41972816 56.44921875 97.984375 C53.68189635 94.61239044 50.84864421 91.30324371 48 88 C44.37561957 83.79722458 40.80432188 79.56450243 37.3125 75.25 C34.46541499 71.7411601 31.54187448 68.34133363 28.5 65 C15.60287303 50.80861909 15.60287303 50.80861909 14 46 C13.34 46 12.68 46 12 46 C10.25935087 43.9299572 8.62157193 41.84801759 7 39.6875 C2.71123311 34.09201051 -1.79170429 28.83097791 -6.5859375 23.65625 C-12.82106323 16.79559386 -18.5328603 9.48247747 -24 2 C-20.7173068 3.49076434 -18.06922559 5.38620321 -15.25 7.625 C-14.45078125 8.25664062 -13.6515625 8.88828125 -12.828125 9.5390625 C-12.22484375 10.02117187 -11.6215625 10.50328125 -11 11 C-7.32943063 9.52202738 -5.58914217 7.52384523 -3.25 4.375 C-2.63640625 3.55773437 -2.0228125 2.74046875 -1.390625 1.8984375 C-0.93171875 1.27195312 -0.4728125 0.64546875 0 0 Z " fill="#8CFAC9" transform="translate(147,299)"/>
<path d="M0 0 C3.33656723 3.12803178 6.39324773 6.46925131 9.375 9.9375 C10.08398438 10.75089844 10.79296875 11.56429688 11.5234375 12.40234375 C13.40323188 15.70938942 12.97342454 17.40460938 12 21 C11.38125 20.34 10.7625 19.68 10.125 19 C6.72110829 15.55664288 2.85358969 12.70281374 -0.98828125 9.76953125 C-1.65214844 9.18558594 -2.31601562 8.60164063 -3 8 C-3 7.34 -3 6.68 -3 6 C-3.66 5.67 -4.32 5.34 -5 5 C-3.625 3.5 -3.625 3.5 -2 2 C-1.34 2 -0.68 2 0 2 C0 1.34 0 0.68 0 0 Z " fill="#56BDF6" transform="translate(464,285)"/>
<path d="M0 0 C5.41342681 1.14514798 7.9342948 2.34012809 11 7 C8.03 7 5.06 7 2 7 C2 7.66 2 8.32 2 9 C0.02 8.34 -1.96 7.68 -4 7 C-2.79618552 4.50638429 -1.54571278 2.31856917 0 0 Z " fill="#53B7F0" transform="translate(364,173)"/>
<path d="M0 0 C5.71711457 4.25742574 5.71711457 4.25742574 7 7.625 C7 10 7 10 5 13 C0.09846827 7.08315098 0.09846827 7.08315098 -0.3125 2.5625 C-0.209375 1.716875 -0.10625 0.87125 0 0 Z " fill="#50B2EA" transform="translate(470,293)"/>
<path d="M0 0 C3.2826932 1.49076434 5.93077441 3.38620321 8.75 5.625 C9.94882813 6.57246094 9.94882813 6.57246094 11.171875 7.5390625 C11.77515625 8.02117187 12.3784375 8.50328125 13 9 C12.01 9.495 12.01 9.495 11 10 C10.67 10.99 10.34 11.98 10 13 C8.51851668 11.21024844 7.03988094 9.41813943 5.5625 7.625 C4.73878906 6.62726563 3.91507812 5.62953125 3.06640625 4.6015625 C1 2 1 2 0 0 Z " fill="#87F0C6" transform="translate(123,301)"/>
<path d="M0 0 C1 2 1 2 1.0625 4.25 C-0.60744869 8.57222013 -4.22935585 10.50055251 -8 13 C-8.66 12.67 -9.32 12.34 -10 12 C-6.7 8.04 -3.4 4.08 0 0 Z " fill="#51B2E9" transform="translate(333,210)"/>
<path d="M0 0 C0.99 0.66 1.98 1.32 3 2 C1.70191542 4.59616917 0.23343204 6.14944202 -2 8 C-3.32 7.67 -4.64 7.34 -6 7 C-4.02 4.69 -2.04 2.38 0 0 Z " fill="#52B6ED" transform="translate(195,205)"/>
<path d="M0 0 C1.65 1.65 3.3 3.3 5 5 C4.01 5.99 3.02 6.98 2 8 C1.01 7.67 0.02 7.34 -1 7 C-0.67 4.69 -0.34 2.38 0 0 Z " fill="#50B1E6" transform="translate(390,307)"/>
<path d="M0 0 C2 3 2 3 1.625 5.6875 C1.41875 6.450625 1.2125 7.21375 1 8 C-0.32 7.67 -1.64 7.34 -3 7 C-3 3.48283697 -2.17554415 2.62878252 0 0 Z " fill="#151A1F" transform="translate(223,202)"/>
<path d="M0 0 C0.33 1.32 0.66 2.64 1 4 C0.01 4.33 -0.98 4.66 -2 5 C-3.65 3.35 -5.3 1.7 -7 0 C-3.86650268 -1.04449911 -3.01031744 -0.93423645 0 0 Z " fill="#51B7EE" transform="translate(223,355)"/>
<path d="M0 0 C0.4125 0.639375 0.825 1.27875 1.25 1.9375 C3.17810487 4.20990931 4.11424181 4.60196439 7 5 C5.68 5.99 4.36 6.98 3 8 C0.9375 6.25 0.9375 6.25 -1 4 C-0.75 1.75 -0.75 1.75 0 0 Z " fill="#52B9F0" transform="translate(205,252)"/>
<path d="M0 0 C0.66 1.32 1.32 2.64 2 4 C1.01 4.33 0.02 4.66 -1 5 C-2.66710346 6.49985609 -2.66710346 6.49985609 -4 8 C-4.66 7.67 -5.32 7.34 -6 7 C-4.02 4.69 -2.04 2.38 0 0 Z " fill="#100E0D" transform="translate(359,212)"/>
<path d="M0 0 C1.32 0.66 2.64 1.32 4 2 C3.34 2 2.68 2 2 2 C1.67 2.99 1.34 3.98 1 5 C0.34 4.67 -0.32 4.34 -1 4 C-1.33 4.66 -1.66 5.32 -2 6 C-2.66 5.34 -3.32 4.68 -4 4 C-3.34 4 -2.68 4 -2 4 C-1.34 2.68 -0.68 1.36 0 0 Z " fill="#181E23" transform="translate(232,361)"/>
<path d="M0 0 C0.99 0.33 1.98 0.66 3 1 C2.67 2.98 2.34 4.96 2 7 C0.35 5.35 -1.3 3.7 -3 2 C-2.01 1.34 -1.02 0.68 0 0 Z " fill="#52B2D9" transform="translate(474,299)"/>
<path d="M0 0 C0.33 0.66 0.66 1.32 1 2 C1.99 1.67 2.98 1.34 4 1 C4.99 1.99 5.98 2.98 7 4 C6.67 4.66 6.34 5.32 6 6 C3.97954558 5.39816251 1.97888961 4.72693904 0 4 C-0.33 3.34 -0.66 2.68 -1 2 C-0.67 1.34 -0.34 0.68 0 0 Z " fill="#100E0C" transform="translate(338,281)"/>
<path d="M0 0 C0.66 0.33 1.32 0.66 2 1 C2.625 3.5625 2.625 3.5625 3 6 C0 6 0 6 -1.6875 4.5 C-2.120625 4.005 -2.55375 3.51 -3 3 C-2.01 2.01 -1.02 1.02 0 0 Z " fill="#15171A" transform="translate(192,242)"/>
<path d="M0 0 C0.99 1.32 1.98 2.64 3 4 C2.01 4.99 1.02 5.98 0 7 C-1.32 6.34 -2.64 5.68 -4 5 C-2.68 3.35 -1.36 1.7 0 0 Z " fill="#50B3E8" transform="translate(219,174)"/>
<path d="M0 0 C0.66 0.66 1.32 1.32 2 2 C1.625 4.125 1.625 4.125 1 6 C-0.32 6.33 -1.64 6.66 -3 7 C-2.25 2.25 -2.25 2.25 0 0 Z " fill="#181F1B" transform="translate(375,427)"/>
<path d="M0 0 C0.66 0.33 1.32 0.66 2 1 C2.125 5.75 2.125 5.75 1 8 C0.34 8 -0.32 8 -1 8 C-1.625 5.6875 -1.625 5.6875 -2 3 C-1.34 2.01 -0.68 1.02 0 0 Z " fill="#100E0D" transform="translate(378,423)"/>
<path d="M0 0 C0.66 0.33 1.32 0.66 2 1 C1.6875 2.875 1.6875 2.875 1 5 C0.01 5.66 -0.98 6.32 -2 7 C-2.66 6.34 -3.32 5.68 -4 5 C-2.68 3.35 -1.36 1.7 0 0 Z " fill="#52B8F0" transform="translate(127,291)"/>
<path d="M0 0 C0.33 0 0.66 0 1 0 C1 1.65 1 3.3 1 5 C0.401875 4.814375 -0.19625 4.62875 -0.8125 4.4375 C-3.16408762 3.77906313 -3.16408762 3.77906313 -6 5 C-6.66 4.01 -7.32 3.02 -8 2 C-6.865625 1.855625 -5.73125 1.71125 -4.5625 1.5625 C-1.19222799 1.38828522 -1.19222799 1.38828522 0 0 Z " fill="#15191F" transform="translate(389,185)"/>
<path d="M0 0 C2 1 2 1 4 4 C3.67 5.32 3.34 6.64 3 8 C1.35 5.69 -0.3 3.38 -2 1 C-1.34 0.67 -0.68 0.34 0 0 Z " fill="#4FB3E8" transform="translate(431,274)"/>
<path d="M0 0 C4.875 4.625 4.875 4.625 6 8 C3.5625 7.375 3.5625 7.375 1 6 C0.1875 2.875 0.1875 2.875 0 0 Z " fill="#4EADE1" transform="translate(244,271)"/>
<path d="M0 0 C1.231394 2.46278801 1.07159196 4.2795055 1 7 C0.01 7.33 -0.98 7.66 -2 8 C-2.6875 6.25 -2.6875 6.25 -3 4 C-1.5625 1.75 -1.5625 1.75 0 0 Z " fill="#50B1E5" transform="translate(217,347)"/>
<path d="M0 0 C0.66 0 1.32 0 2 0 C0.73058503 3.91402949 -0.51167694 5.79072873 -4 8 C-3.40312566 4.65750371 -2.26396123 2.53563658 0 0 Z " fill="#87EABE" transform="translate(473,304)"/>
<path d="M0 0 C0.33 0.66 0.66 1.32 1 2 C0.21654285 3.17219543 -0.57702836 4.33763668 -1.375 5.5 C-1.81585938 6.1496875 -2.25671875 6.799375 -2.7109375 7.46875 C-3.13632812 7.9740625 -3.56171875 8.479375 -4 9 C-4.66 9 -5.32 9 -6 9 C-4.47291037 5.56404834 -2.40072955 2.88087546 0 0 Z " fill="#79D4AE" transform="translate(418,342)"/>
<path d="M0 0 C3.36591866 1.44253657 5.51047079 3.33264727 8 6 C7.01 6.33 6.02 6.66 5 7 C3.35 4.69 1.7 2.38 0 0 Z " fill="#7ADDBD" transform="translate(123,301)"/>
<path d="M0 0 C0.33 0.66 0.66 1.32 1 2 C2.32 2 3.64 2 5 2 C5.33 2.99 5.66 3.98 6 5 C5.34 5.66 4.68 6.32 4 7 C2 5.1875 2 5.1875 0 3 C0 2.01 0 1.02 0 0 Z " fill="#4DAFE5" transform="translate(393,231)"/>
</svg>
